Coordinates
version=1
nRows=40
nColumns=30
inDegrees=yes

Units are S.I. units (second, meters, Newtons, ...)
Angles are in degrees.

endheader
time	floatyaw	floatroll	floatpitch	floatx	floaty	floatz	pro_sup_l	deviation_l	flexion_l	cmc_flexion_l	cmc_abduction_l	mp_flexion_l	ip_flexion_l	2mcp_flexion_l	2mcp_abduction_l	2pm_flexion_l	2md_flexion_l	3mcp_flexion_l	3mcp_abduction_l	3pm_flexion_l	3md_flexion_l	4mcp_flexion_l	4mcp_abduction_l	4pm_flexion_l	4md_flexion_l	5mcp_flexion_l	5mcp_abduction_l	5pm_flexion_l	5md_flexion_l
-0.995000	-160.147433	-5.066637	-73.570646	0.082086	-0.182095	-0.016043	102.594743	4.490628	-0.647430	15.392489	6.168667	-25.296290	-41.155236	30.097667	7.166941	42.499818	28.983588	24.120652	4.293509	44.269112	29.087648	12.864648	-4.345898	52.472160	36.078935	0.443605	-8.548396	62.198610	43.755375
-0.985000	-160.147433	-5.066637	-73.570646	0.082086	-0.182090	-0.016036	102.579236	4.486934	-0.641553	15.372617	6.198764	-25.294524	-41.149751	30.120416	7.168813	42.483259	28.972407	24.121192	4.297385	44.273278	29.084964	12.866714	-4.346932	52.469838	36.081553	0.448683	-8.544038	62.192393	43.752966
-0.975000	-160.147433	-5.066637	-73.570646	0.082088	-0.182085	-0.016026	102.564790	4.485227	-0.635494	15.347296	6.221910	-25.283113	-41.131698	30.143625	7.171416	42.462318	28.960666	24.127311	4.299251	44.270484	29.079580	12.872761	-4.347542	52.461430	36.081932	0.451441	-8.535292	62.188977	43.752123
-0.965000	-160.147433	-5.066637	-73.570646	0.082091	-0.182079	-0.016015	102.551217	4.484784	-0.629928	15.317687	6.234223	-25.261506	-41.099763	30.165107	7.175376	42.438820	28.949366	24.136507	4.299418	44.263836	29.073750	12.880538	-4.348360	52.452211	36.081806	0.452900	-8.523936	62.185172	43.752209
-0.955000	-160.147433	-5.066637	-73.570646	0.082095	-0.182076	-0.016006	102.537498	4.484455	-0.626273	15.287107	6.236222	-25.233653	-41.058116	30.184355	7.180806	42.416258	28.939777	24.146071	4.298930	44.257756	29.069573	12.887632	-4.350158	52.448062	36.083162	0.453978	-8.512874	62.179629	43.754145
-0.945000	-160.147433	-5.066637	-73.570646	0.082098	-0.182077	-0.015998	102.522533	4.483416	-0.625967	15.260481	6.232607	-25.207676	-41.016879	30.202067	7.187155	42.399486	28.933590	24.153823	4.298723	44.256752	29.068841	12.892414	-4.353261	52.452276	36.087160	0.454437	-8.505349	62.174512	43.759823
-0.935000	-160.147433	-5.066637	-73.570646	0.082099	-0.182083	-0.015992	102.505782	4.481599	-0.629593	15.242594	6.230457	-25.193084	-40.989194	30.219271	7.193470	42.392939	28.932387	24.158747	4.298954	44.264054	29.072809	12.894741	-4.357208	52.463829	36.093452	0.452898	-8.503859	62.174680	43.770519
-0.925000	-160.147433	-5.066637	-73.570646	0.082096	-0.182093	-0.015989	102.487728	4.479665	-0.636421	15.236044	6.236039	-25.196673	-40.985993	30.236511	7.198940	42.398226	28.936537	24.161239	4.299014	44.280472	29.081627	12.895944	-4.360910	52.478218	36.100308	0.448003	-8.509120	62.184851	43.785509
-0.915000	-160.147433	-5.066637	-73.570646	0.082090	-0.182104	-0.015985	102.469992	4.478640	-0.644626	15.240119	6.251413	-25.219265	-41.011182	30.253410	7.203398	42.412659	28.944274	24.162738	4.298174	44.303812	29.093704	12.897931	-4.363207	52.490261	36.105513	0.439805	-8.519618	62.206648	43.801929
-0.905000	-160.147433	-5.066637	-73.570646	0.082084	-0.182113	-0.015980	102.454863	4.479432	-0.652009	15.251290	6.272888	-25.255108	-41.059753	30.268842	7.207410	42.429932	28.951919	24.164852	4.296323	44.329218	29.105702	12.901874	-4.363466	52.496933	36.107488	0.430237	-8.532140	62.237506	43.815982
-0.895000	-160.147433	-5.066637	-73.570646	0.082080	-0.182120	-0.015973	102.444263	4.482444	-0.656819	15.264930	6.292685	-25.294274	-41.119730	30.281635	7.211789	42.442968	28.955538	24.168476	4.294177	44.350633	29.113636	12.907284	-4.361849	52.498547	36.106049	0.422227	-8.543191	62.272075	43.824695
-0.885000	-160.147433	-5.066637	-73.570646	0.082079	-0.182122	-0.015964	102.438610	4.487394	-0.658250	15.277239	6.303118	-25.326841	-41.176929	30.291329	7.216791	42.447496	28.953178	24.173335	4.292831	44.363021	29.114670	12.911994	-4.359142	52.497985	36.102471	0.418046	-8.550577	62.304880	43.827142
-0.875000	-160.147433	-5.066637	-73.570646	0.082081	-0.182121	-0.015953	102.436338	4.493378	-0.656464	15.286290	6.300800	-25.346755	-41.220245	30.298451	7.221571	42.444194	28.946157	24.178120	4.293034	44.364416	29.108548	12.913029	-4.356336	52.498854	36.098890	0.418008	-8.554232	62.332338	43.824545
-0.865000	-160.147433	-5.066637	-73.570646	0.082086	-0.182119	-0.015941	102.434517	4.499142	-0.652197	15.291813	6.288437	-25.353542	-41.244984	30.304206	7.224391	42.438076	28.938489	24.181021	4.294773	44.356717	29.097760	12.907984	-4.354210	52.503715	36.097375	0.420309	-8.555807	62.353194	43.819391
-0.855000	-160.147433	-5.066637	-73.570646	0.082093	-0.182116	-0.015931	102.430353	4.503499	-0.646277	15.294138	6.273434	-25.351364	-41.252970	30.309740	7.223584	42.435687	28.934876	24.180389	4.297414	44.344848	29.086433	12.896331	-4.353172	52.513144	36.099086	0.422041	-8.557344	62.367827	43.814234
-0.845000	-160.147433	-5.066637	-73.570646	0.082099	-0.182114	-0.015922	102.422762	4.505749	-0.639312	15.293225	6.264375	-25.346294	-41.249952	30.315287	7.218678	42.441985	28.938595	24.175199	4.300207	44.334844	29.078699	12.879968	-4.353343	52.525883	36.103918	0.420730	-8.559946	62.377465	43.810890
-0.835000	-160.147433	-5.066637	-73.570646	0.082103	-0.182111	-0.015916	102.413054	4.505919	-0.631615	15.288475	6.267275	-25.343482	-41.242291	30.319710	7.210927	42.458451	28.950274	24.165221	4.302680	44.331779	29.077322	12.862551	-4.354733	52.539716	36.110717	0.415431	-8.563216	62.383736	43.810250
-0.825000	-160.147433	-5.066637	-73.570646	0.082104	-0.182106	-0.015914	102.404210	4.504657	-0.623323	15.279375	6.283243	-25.345548	-41.234834	30.321016	7.202805	42.482736	28.967755	24.151033	4.304662	44.338189	29.082941	12.847882	-4.357304	52.552368	36.117798	0.406845	-8.565660	62.388263	43.812403
-0.815000	-160.147433	-5.066637	-73.570646	0.082103	-0.182097	-0.015916	102.399142	4.502843	-0.614569	15.266418	6.308347	-25.352531	-41.230547	30.317764	7.196769	42.509528	28.986846	24.133993	4.306054	44.353385	29.093990	12.838206	-4.360824	52.561997	36.123479	0.396618	-8.565617	62.391937	43.816612
-0.805000	-160.147433	-5.066637	-73.570646	0.082100	-0.182086	-0.015920	102.399079	4.501124	-0.605621	15.251545	6.335486	-25.362839	-41.231036	30.310374	7.194097	42.532398	29.002838	24.116031	4.306643	44.373900	29.107387	12.833291	-4.364710	52.567468	36.126573	0.386511	-8.562139	62.394236	43.821184
-0.795000	-160.147433	-5.066637	-73.570646	0.082098	-0.182074	-0.015927	102.403069	4.499655	-0.596891	15.237606	6.357212	-25.374365	-41.236783	30.301229	7.194540	42.546199	29.012383	24.099068	4.306185	44.395030	29.119867	12.830671	-4.368057	52.568745	36.126874	0.377970	-8.555457	62.393400	43.823737
-0.785000	-160.147433	-5.066637	-73.570646	0.082097	-0.182064	-0.015934	102.408751	4.498147	-0.588814	15.227003	6.368221	-25.385246	-41.246859	30.293452	7.196879	42.548963	29.014839	24.084245	4.304687	44.412760	29.129339	12.826874	-4.369945	52.567218	36.125388	0.372030	-8.547004	62.387804	43.822194
-0.775000	-160.147433	-5.066637	-73.570646	0.082099	-0.182057	-0.015941	102.413692	4.496138	-0.581649	15.220327	6.366654	-25.394205	-41.258741	30.289323	7.199875	42.542173	29.012178	24.071480	4.302643	44.424986	29.135419	12.819080	-4.369892	52.565426	36.123998	0.369190	-8.539081	62.377718	43.816147
-0.765000	-160.147433	-5.066637	-73.570646	0.082102	-0.182054	-0.015946	102.416455	4.493304	-0.575277	15.215902	6.354095	-25.400540	-41.268844	30.289368	7.202953	42.529405	29.007510	24.059732	4.301005	44.431431	29.138841	12.806427	-4.368188	52.566103	36.124608	0.369167	-8.534183	62.365979	43.807565
-0.755000	-160.147433	-5.066637	-73.570646	0.082106	-0.182052	-0.015951	102.416929	4.489672	-0.569119	15.210521	6.334739	-25.403830	-41.273590	30.292472	7.206283	42.514478	29.003285	24.047885	4.300844	44.432677	29.140350	12.790281	-4.365870	52.571118	36.128276	0.370878	-8.534009	62.356719	43.800011
-0.745000	-160.147433	-5.066637	-73.570646	0.082109	-0.182050	-0.015955	102.415921	4.485655	-0.562318	15.200865	6.314167	-25.403570	-41.270434	30.296734	7.210336	42.500289	29.000390	24.035668	4.302855	44.429338	29.140050	12.773404	-4.364273	52.580886	36.134835	0.372959	-8.538464	62.352750	43.796563
-0.735000	-160.147433	-5.066637	-73.570646	0.082111	-0.182045	-0.015957	102.414415	4.481899	-0.554199	15.184834	6.297894	-25.399087	-41.258508	30.300466	7.215342	42.488581	28.998473	24.024027	4.306976	44.422007	29.137632	12.758579	-4.364393	52.594369	36.143126	0.374571	-8.545272	62.353459	43.797812
-0.725000	-160.147433	-5.066637	-73.570646	0.082111	-0.182038	-0.015957	102.413015	4.478980	-0.544718	15.162318	6.289908	-25.389924	-41.238901	30.302812	7.221030	42.480158	28.996889	24.014656	4.312331	44.411823	29.133185	12.747484	-4.366425	52.609455	36.151585	0.375868	-8.550790	62.354924	43.801447
-0.715000	-160.147433	-5.066637	-73.570646	0.082109	-0.182028	-0.015955	102.411806	4.477042	-0.534535	15.135218	6.291769	-25.376480	-41.214557	30.303817	7.226757	42.475027	28.995413	24.008939	4.317547	44.400931	29.127843	12.740288	-4.369694	52.623484	36.158835	0.377709	-8.551849	62.352420	43.803861
-0.705000	-160.147433	-5.066637	-73.570646	0.082106	-0.182018	-0.015951	102.410397	4.475589	-0.524584	15.106689	6.302981	-25.360385	-41.189521	30.304229	7.231846	42.472432	28.994315	24.007004	4.321278	44.392204	29.123686	12.736007	-4.372997	52.633825	36.164006	0.380802	-8.547590	62.343671	43.802623
-0.695000	-160.147433	-5.066637	-73.570646	0.082102	-0.182009	-0.015947	102.407861	4.473601	-0.515461	15.079867	6.322462	-25.344273	-41.167518	30.305370	7.235856	42.471042	28.994010	24.007584	4.322720	44.388099	29.122845	12.733307	-4.375150	52.638422	36.166760	0.384918	-8.540048	62.330560	43.798041
-0.685000	-160.147433	-5.066637	-73.570646	0.082099	-0.182002	-0.015944	102.402752	4.470038	-0.507183	15.056640	6.349810	-25.330946	-41.150493	30.309027	7.238682	42.469477	28.994704	24.008898	4.321904	44.389290	29.126309	12.731344	-4.375487	52.636322	36.167175	0.388799	-8.532988	62.318103	43.792725
-0.675000	-160.147433	-5.066637	-73.570646	0.082095	-0.181996	-0.015943	102.393593	4.464429	-0.499518	15.037182	6.384998	-25.322366	-41.138097	30.317009	7.240545	42.467067	28.996319	24.009898	4.319649	44.394068	29.133244	12.730144	-4.374127	52.628181	36.165710	0.390805	-8.529727	62.311522	43.789640
-0.665000	-160.147433	-5.066637	-73.570646	0.082092	-0.181991	-0.015942	102.379845	4.457171	-0.492560	15.020490	6.426623	-25.319108	-41.128518	30.330230	7.241877	42.464328	28.998648	24.010832	4.317221	44.399170	29.141377	12.730210	-4.371897	52.616617	36.163311	0.389682	-8.531348	62.313574	43.790238
-0.655000	-160.147433	-5.066637	-73.570646	0.082088	-0.181988	-0.015941	102.362744	4.449309	-0.486927	15.005522	6.470336	-25.320678	-41.120068	30.347849	7.243167	42.462641	29.001526	24.012540	4.315822	44.401722	29.148368	12.731532	-4.370003	52.606042	36.161473	0.384822	-8.536409	62.323905	43.794070
-0.645000	-160.147433	-5.066637	-73.570646	0.082083	-0.181987	-0.015939	102.345372	4.442031	-0.483350	14.992181	6.509026	-25.326374	-41.112471	30.367187	7.244824	42.463102	29.004755	24.015000	4.316140	44.401192	29.153342	12.732771	-4.369531	52.601636	36.161984	0.376015	-8.542146	62.340400	43.799920
-0.635000	-160.147433	-5.066637	-73.570646	0.082078	-0.181989	-0.015939	102.331863	4.436258	-0.481976	14.981577	6.534789	-25.335951	-41.107197	30.384645	7.247091	42.465350	29.007854	24.016314	4.318122	44.400103	29.157525	12.731376	-4.371008	52.607589	36.166287	0.363261	-8.546190	62.360969	43.807262
-0.625000	-160.147433	-5.066637	-73.570646	0.082073	-0.181990	-0.015941	102.326066	4.432555	-0.481962	14.975495	6.541501	-25.349545	-41.106833	30.397054	7.249928	42.467436	29.009933	24.013060	4.321036	44.402898	29.163479	12.724707	-4.374200	52.625238	36.174716	0.346987	-8.547598	62.384147	43.816693
-0.615000	-160.147433	-5.066637	-73.570646	0.082067	-0.181991	-0.015947	102.330140	4.431190	-0.481677	14.975265	6.526877	-25.366945	-41.113799	30.402672	7.252869	42.467138	29.010035	24.001983	4.323783	44.413410	29.173344	12.711508	-4.378269	52.652041	36.186022	0.328489	-8.546758	62.408202	43.828954
-0.605000	-160.147433	-5.066637	-73.570646	0.082062	-0.181989	-0.015957	102.343489	4.432105	-0.479401	14.980464	6.493673	-25.386721	-41.128739	30.401559	7.255027	42.463732	29.007747	23.982124	4.325367	44.432348	29.187215	12.692882	-4.382166	52.681993	36.197551	0.310157	-8.544579	62.429852	43.843355
